<svg xmlns="http://www.w3.org/2000/svg" viewBox="0 0 64 64">
  <rect width="64" height="64" rx="14" fill="#0d0b08"/>
  <circle cx="32" cy="32" r="26" fill="none" stroke="#c9a96e" stroke-width="0.6" opacity="0.2"/>
  <rect x="20" y="20" width="24" height="24" rx="4" fill="none" stroke="#c9a96e" stroke-width="1.5"/>
  <rect x="24" y="24" width="16" height="16" rx="2" fill="rgba(201,169,110,0.1)" stroke="#c9a96e" stroke-width="0.8" opacity="0.6"/>
  <line x1="26" y1="20" x2="26" y2="13" stroke="#c9a96e" stroke-width="1.4" stroke-linecap="round" opacity="0.7"/>
  <line x1="32" y1="20" x2="32" y2="13" stroke="#c9a96e" stroke-width="1.4" stroke-linecap="round" opacity="0.7"/>
  <line x1="38" y1="20" x2="38" y2="13" stroke="#c9a96e" stroke-width="1.4" stroke-linecap="round" opacity="0.7"/>
  <line x1="26" y1="44" x2="26" y2="51" stroke="#c9a96e" stroke-width="1.4" stroke-linecap="round" opacity="0.7"/>
  <line x1="32" y1="44" x2="32" y2="51" stroke="#c9a96e" stroke-width="1.4" stroke-linecap="round" opacity="0.7"/>
  <line x1="38" y1="44" x2="38" y2="51" stroke="#c9a96e" stroke-width="1.4" stroke-linecap="round" opacity="0.7"/>
  <line x1="20" y1="26" x2="13" y2="26" stroke="#c9a96e" stroke-width="1.4" stroke-linecap="round" opacity="0.7"/>
  <line x1="20" y1="32" x2="13" y2="32" stroke="#c9a96e" stroke-width="1.4" stroke-linecap="round" opacity="0.7"/>
  <line x1="20" y1="38" x2="13" y2="38" stroke="#c9a96e" stroke-width="1.4" stroke-linecap="round" opacity="0.7"/>
  <line x1="44" y1="26" x2="51" y2="26" stroke="#c9a96e" stroke-width="1.4" stroke-linecap="round" opacity="0.7"/>
  <line x1="44" y1="32" x2="51" y2="32" stroke="#c9a96e" stroke-width="1.4" stroke-linecap="round" opacity="0.7"/>
  <line x1="44" y1="38" x2="51" y2="38" stroke="#c9a96e" stroke-width="1.4" stroke-linecap="round" opacity="0.7"/>
  <circle cx="32" cy="32" r="4" fill="#c9a96e"/>
  <circle cx="32" cy="32" r="2" fill="#e8c98a"/>
</svg>
